<svg xmlns="http://www.w3.org/2000/svg" width="1440" height="900"><path d="M720,502L724,582L811,510Z" fill="rgb(165,165,218)" stroke="rgb(165,165,218)" stroke-width="1.51"/><path d="M724,582L799,592L811,510Z" fill="rgb(171,170,221)" stroke="rgb(171,170,221)" stroke-width="1.51"/><path d="M720,502L619,483L724,582Z" fill="rgb(160,160,216)" stroke="rgb(160,160,216)" stroke-width="1.51"/><path d="M716,369L619,483L720,502Z" fill="rgb(151,152,212)" stroke="rgb(151,152,212)" stroke-width="1.51"/><path d="M724,582L744,703L799,592Z" fill="rgb(177,176,223)" stroke="rgb(177,176,223)" stroke-width="1.51"/><path d="M612,674L744,703L724,582Z" fill="rgb(175,175,222)" stroke="rgb(175,175,222)" stroke-width="1.51"/><path d="M811,510L850,400L720,502Z" fill="rgb(161,161,216)" stroke="rgb(161,161,216)" stroke-width="1.51"/><path d="M956,469L850,400L811,510Z" fill="rgb(166,165,218)" stroke="rgb(166,165,218)" stroke-width="1.51"/><path d="M799,592L931,598L811,510Z" fill="rgb(176,175,223)" stroke="rgb(176,175,223)" stroke-width="1.51"/><path d="M744,703L856,680L799,592Z" fill="rgb(183,182,226)" stroke="rgb(183,182,226)" stroke-width="1.51"/><path d="M850,400L716,369L720,502Z" fill="rgb(154,154,214)" stroke="rgb(154,154,214)" stroke-width="1.51"/><path d="M856,680L931,598L799,592Z" fill="rgb(184,182,226)" stroke="rgb(184,182,226)" stroke-width="1.51"/><path d="M619,483L587,586L724,582Z" fill="rgb(160,160,216)" stroke="rgb(160,160,216)" stroke-width="1.51"/><path d="M587,586L612,674L724,582Z" fill="rgb(167,167,219)" stroke="rgb(167,167,219)" stroke-width="1.51"/><path d="M931,598L956,469L811,510Z" fill="rgb(175,175,222)" stroke="rgb(175,175,222)" stroke-width="1.51"/><path d="M850,400L723,311L716,369Z" fill="rgb(146,148,211)" stroke="rgb(146,148,211)" stroke-width="1.51"/><path d="M956,469L922,401L850,400Z" fill="rgb(164,164,218)" stroke="rgb(164,164,218)" stroke-width="1.51"/><path d="M619,483L480,530L587,586Z" fill="rgb(152,153,213)" stroke="rgb(152,153,213)" stroke-width="1.51"/><path d="M716,369L613,373L619,483Z" fill="rgb(144,145,209)" stroke="rgb(144,145,209)" stroke-width="1.51"/><path d="M814,271L723,311L850,400Z" fill="rgb(144,147,210)" stroke="rgb(144,147,210)" stroke-width="1.51"/><path d="M716,369L651,274L613,373Z" fill="rgb(136,139,207)" stroke="rgb(136,139,207)" stroke-width="1.51"/><path d="M856,680L955,681L931,598Z" fill="rgb(191,190,229)" stroke="rgb(191,190,229)" stroke-width="1.51"/><path d="M931,598L1033,573L956,469Z" fill="rgb(183,182,225)" stroke="rgb(183,182,225)" stroke-width="1.51"/><path d="M899,783L955,681L856,680Z" fill="rgb(197,195,231)" stroke="rgb(197,195,231)" stroke-width="1.51"/><path d="M955,681L1033,573L931,598Z" fill="rgb(191,190,229)" stroke="rgb(191,190,229)" stroke-width="1.51"/><path d="M1003,398L927,322L922,401Z" fill="rgb(161,162,217)" stroke="rgb(161,162,217)" stroke-width="1.51"/><path d="M922,401L927,322L850,400Z" fill="rgb(158,159,215)" stroke="rgb(158,159,215)" stroke-width="1.51"/><path d="M1003,398L922,401L956,469Z" fill="rgb(168,168,219)" stroke="rgb(168,168,219)" stroke-width="1.51"/><path d="M927,322L814,271L850,400Z" fill="rgb(150,152,212)" stroke="rgb(150,152,212)" stroke-width="1.51"/><path d="M612,674L633,785L744,703Z" fill="rgb(180,180,225)" stroke="rgb(180,180,225)" stroke-width="1.51"/><path d="M834,832L899,783L856,680Z" fill="rgb(200,199,233)" stroke="rgb(200,199,233)" stroke-width="1.51"/><path d="M504,734L633,785L612,674Z" fill="rgb(176,175,223)" stroke="rgb(176,175,223)" stroke-width="1.51"/><path d="M633,785L691,809L744,703Z" fill="rgb(187,186,228)" stroke="rgb(187,186,228)" stroke-width="1.51"/><path d="M955,681L1054,704L1033,573Z" fill="rgb(198,196,232)" stroke="rgb(198,196,232)" stroke-width="1.51"/><path d="M834,832L856,680L744,703Z" fill="rgb(193,192,230)" stroke="rgb(193,192,230)" stroke-width="1.51"/><path d="M1050,500L1003,398L956,469Z" fill="rgb(175,174,222)" stroke="rgb(175,174,222)" stroke-width="1.51"/><path d="M498,399L480,530L619,483Z" fill="rgb(142,144,209)" stroke="rgb(142,144,209)" stroke-width="1.51"/><path d="M587,586L480,623L612,674Z" fill="rgb(163,162,217)" stroke="rgb(163,162,217)" stroke-width="1.51"/><path d="M723,311L651,274L716,369Z" fill="rgb(136,139,207)" stroke="rgb(136,139,207)" stroke-width="1.51"/><path d="M613,373L498,399L619,483Z" fill="rgb(139,142,208)" stroke="rgb(139,142,208)" stroke-width="1.51"/><path d="M740,199L651,274L723,311Z" fill="rgb(130,134,204)" stroke="rgb(130,134,204)" stroke-width="1.51"/><path d="M1033,573L1050,500L956,469Z" fill="rgb(182,181,225)" stroke="rgb(182,181,225)" stroke-width="1.51"/><path d="M480,530L480,623L587,586Z" fill="rgb(154,155,214)" stroke="rgb(154,155,214)" stroke-width="1.51"/><path d="M519,317L498,399L613,373Z" fill="rgb(130,133,204)" stroke="rgb(130,133,204)" stroke-width="1.51"/><path d="M691,809L834,832L744,703Z" fill="rgb(194,193,230)" stroke="rgb(194,193,230)" stroke-width="1.51"/><path d="M480,623L504,734L612,674Z" fill="rgb(166,166,219)" stroke="rgb(166,166,219)" stroke-width="1.51"/><path d="M607,896L687,915L691,809Z" fill="rgb(198,197,232)" stroke="rgb(198,197,232)" stroke-width="1.51"/><path d="M480,530L435,525L480,623Z" fill="rgb(148,149,211)" stroke="rgb(148,149,211)" stroke-width="1.51"/><path d="M480,623L385,716L504,734Z" fill="rgb(162,162,217)" stroke="rgb(162,162,217)" stroke-width="1.51"/><path d="M443,404L435,525L480,530Z" fill="rgb(138,141,207)" stroke="rgb(138,141,207)" stroke-width="1.51"/><path d="M498,399L443,404L480,530Z" fill="rgb(135,137,206)" stroke="rgb(135,137,206)" stroke-width="1.51"/><path d="M651,274L519,317L613,373Z" fill="rgb(129,133,204)" stroke="rgb(129,133,204)" stroke-width="1.51"/><path d="M1004,784L1054,704L955,681Z" fill="rgb(205,203,235)" stroke="rgb(205,203,235)" stroke-width="1.51"/><path d="M1033,573L1131,481L1050,500Z" fill="rgb(186,185,227)" stroke="rgb(186,185,227)" stroke-width="1.51"/><path d="M1004,784L955,681L899,783Z" fill="rgb(204,203,234)" stroke="rgb(204,203,234)" stroke-width="1.51"/><path d="M814,271L740,199L723,311Z" fill="rgb(134,137,206)" stroke="rgb(134,137,206)" stroke-width="1.51"/><path d="M651,274L594,224L519,317Z" fill="rgb(122,127,201)" stroke="rgb(122,127,201)" stroke-width="1.51"/><path d="M924,200L804,201L814,271Z" fill="rgb(136,139,207)" stroke="rgb(136,139,207)" stroke-width="1.51"/><path d="M804,201L740,199L814,271Z" fill="rgb(132,135,205)" stroke="rgb(132,135,205)" stroke-width="1.51"/><path d="M902,944L1004,784L899,783Z" fill="rgb(213,211,238)" stroke="rgb(213,211,238)" stroke-width="1.51"/><path d="M519,317L443,404L498,399Z" fill="rgb(127,131,203)" stroke="rgb(127,131,203)" stroke-width="1.51"/><path d="M740,199L594,224L651,274Z" fill="rgb(123,128,202)" stroke="rgb(123,128,202)" stroke-width="1.51"/><path d="M335,419L435,525L443,404Z" fill="rgb(130,134,204)" stroke="rgb(130,134,204)" stroke-width="1.51"/><path d="M1054,280L924,200L927,322Z" fill="rgb(150,152,212)" stroke="rgb(150,152,212)" stroke-width="1.51"/><path d="M927,322L924,200L814,271Z" fill="rgb(144,146,210)" stroke="rgb(144,146,210)" stroke-width="1.51"/><path d="M1050,500L1108,407L1003,398Z" fill="rgb(176,175,223)" stroke="rgb(176,175,223)" stroke-width="1.51"/><path d="M1131,481L1108,407L1050,500Z" fill="rgb(182,181,225)" stroke="rgb(182,181,225)" stroke-width="1.51"/><path d="M1130,635L1131,481L1033,573Z" fill="rgb(193,192,230)" stroke="rgb(193,192,230)" stroke-width="1.51"/><path d="M435,525L391,578L480,623Z" fill="rgb(147,149,211)" stroke="rgb(147,149,211)" stroke-width="1.51"/><path d="M324,527L391,578L435,525Z" fill="rgb(140,142,208)" stroke="rgb(140,142,208)" stroke-width="1.51"/><path d="M804,201L740,112L740,199Z" fill="rgb(123,128,202)" stroke="rgb(123,128,202)" stroke-width="1.51"/><path d="M1054,280L927,322L1003,398Z" fill="rgb(160,160,216)" stroke="rgb(160,160,216)" stroke-width="1.51"/><path d="M1054,704L1130,635L1033,573Z" fill="rgb(200,198,233)" stroke="rgb(200,198,233)" stroke-width="1.51"/><path d="M1118,675L1130,635L1054,704Z" fill="rgb(206,204,235)" stroke="rgb(206,204,235)" stroke-width="1.51"/><path d="M1141,835L1118,675L1054,704Z" fill="rgb(214,212,238)" stroke="rgb(214,212,238)" stroke-width="1.51"/><path d="M691,809L687,915L834,832Z" fill="rgb(200,200,233)" stroke="rgb(200,200,233)" stroke-width="1.51"/><path d="M504,734L514,828L633,785Z" fill="rgb(179,179,224)" stroke="rgb(179,179,224)" stroke-width="1.51"/><path d="M393,788L514,828L504,734Z" fill="rgb(174,173,222)" stroke="rgb(174,173,222)" stroke-width="1.51"/><path d="M607,896L691,809L633,785Z" fill="rgb(191,190,229)" stroke="rgb(191,190,229)" stroke-width="1.51"/><path d="M834,832L902,944L899,783Z" fill="rgb(210,209,237)" stroke="rgb(210,209,237)" stroke-width="1.51"/><path d="M543,885L607,896L633,785Z" fill="rgb(191,190,229)" stroke="rgb(191,190,229)" stroke-width="1.51"/><path d="M1108,407L1054,280L1003,398Z" fill="rgb(168,167,219)" stroke="rgb(168,167,219)" stroke-width="1.51"/><path d="M514,828L543,885L633,785Z" fill="rgb(186,185,227)" stroke="rgb(186,185,227)" stroke-width="1.51"/><path d="M623,1033L705,1040L687,915Z" fill="rgb(201,200,233)" stroke="rgb(201,200,233)" stroke-width="1.51"/><path d="M687,915L821,947L834,832Z" fill="rgb(209,208,236)" stroke="rgb(209,208,236)" stroke-width="1.51"/><path d="M705,1040L821,947L687,915Z" fill="rgb(206,205,235)" stroke="rgb(206,205,235)" stroke-width="1.51"/><path d="M391,578L385,716L480,623Z" fill="rgb(154,154,213)" stroke="rgb(154,154,213)" stroke-width="1.51"/><path d="M426,942L506,997L543,885Z" fill="rgb(188,188,228)" stroke="rgb(188,188,228)" stroke-width="1.51"/><path d="M821,947L902,944L834,832Z" fill="rgb(214,213,238)" stroke="rgb(214,213,238)" stroke-width="1.51"/><path d="M1141,835L1200,682L1118,675Z" fill="rgb(216,215,240)" stroke="rgb(216,215,240)" stroke-width="1.51"/><path d="M740,199L621,119L594,224Z" fill="rgb(116,122,199)" stroke="rgb(116,122,199)" stroke-width="1.51"/><path d="M819,114L740,112L804,201Z" fill="rgb(122,126,201)" stroke="rgb(122,126,201)" stroke-width="1.51"/><path d="M924,200L819,114L804,201Z" fill="rgb(130,134,204)" stroke="rgb(130,134,204)" stroke-width="1.51"/><path d="M926,82L819,114L924,200Z" fill="rgb(128,132,203)" stroke="rgb(128,132,203)" stroke-width="1.51"/><path d="M1108,407L1137,322L1054,280Z" fill="rgb(168,168,220)" stroke="rgb(168,168,220)" stroke-width="1.51"/><path d="M1054,280L1046,181L924,200Z" fill="rgb(148,149,211)" stroke="rgb(148,149,211)" stroke-width="1.51"/><path d="M1257,418L1137,322L1108,407Z" fill="rgb(178,177,223)" stroke="rgb(178,177,223)" stroke-width="1.51"/><path d="M1257,418L1108,407L1131,481Z" fill="rgb(184,183,226)" stroke="rgb(184,183,226)" stroke-width="1.51"/><path d="M335,419L324,527L435,525Z" fill="rgb(132,135,205)" stroke="rgb(132,135,205)" stroke-width="1.51"/><path d="M391,578L293,637L385,716Z" fill="rgb(150,151,212)" stroke="rgb(150,151,212)" stroke-width="1.51"/><path d="M417,261L443,404L519,317Z" fill="rgb(119,125,200)" stroke="rgb(119,125,200)" stroke-width="1.51"/><path d="M509,161L417,261L519,317Z" fill="rgb(111,118,197)" stroke="rgb(111,118,197)" stroke-width="1.51"/><path d="M509,161L519,317L594,224Z" fill="rgb(114,120,198)" stroke="rgb(114,120,198)" stroke-width="1.51"/><path d="M740,112L621,119L740,199Z" fill="rgb(115,121,198)" stroke="rgb(115,121,198)" stroke-width="1.51"/><path d="M310,329L335,419L443,404Z" fill="rgb(119,125,200)" stroke="rgb(119,125,200)" stroke-width="1.51"/><path d="M385,716L393,788L504,734Z" fill="rgb(167,167,219)" stroke="rgb(167,167,219)" stroke-width="1.51"/><path d="M284,703L393,788L385,716Z" fill="rgb(160,161,216)" stroke="rgb(160,161,216)" stroke-width="1.51"/><path d="M1130,635L1211,521L1131,481Z" fill="rgb(196,194,231)" stroke="rgb(196,194,231)" stroke-width="1.51"/><path d="M1255,617L1211,521L1130,635Z" fill="rgb(204,202,234)" stroke="rgb(204,202,234)" stroke-width="1.51"/><path d="M621,119L509,161L594,224Z" fill="rgb(108,116,196)" stroke="rgb(108,116,196)" stroke-width="1.51"/><path d="M1103,209L1046,181L1054,280Z" fill="rgb(153,154,213)" stroke="rgb(153,154,213)" stroke-width="1.51"/><path d="M1118,675L1200,682L1130,635Z" fill="rgb(208,207,236)" stroke="rgb(208,207,236)" stroke-width="1.51"/><path d="M1141,835L1054,704L1004,784Z" fill="rgb(215,214,239)" stroke="rgb(215,214,239)" stroke-width="1.51"/><path d="M1211,265L1103,209L1137,322Z" fill="rgb(164,163,217)" stroke="rgb(164,163,217)" stroke-width="1.51"/><path d="M1137,322L1103,209L1054,280Z" fill="rgb(160,160,216)" stroke="rgb(160,160,216)" stroke-width="1.51"/><path d="M324,527L293,637L391,578Z" fill="rgb(140,143,208)" stroke="rgb(140,143,208)" stroke-width="1.51"/><path d="M210,511L293,637L324,527Z" fill="rgb(133,137,206)" stroke="rgb(133,137,206)" stroke-width="1.51"/><path d="M1100,889L1141,835L1004,784Z" fill="rgb(223,222,242)" stroke="rgb(223,222,242)" stroke-width="1.51"/><path d="M1039,941L1100,889L1004,784Z" fill="rgb(225,223,243)" stroke="rgb(225,223,243)" stroke-width="1.51"/><path d="M819,114L799,4L740,112Z" fill="rgb(113,120,197)" stroke="rgb(113,120,197)" stroke-width="1.51"/><path d="M546,-19L500,78L621,119Z" fill="rgb(92,104,190)" stroke="rgb(92,104,190)" stroke-width="1.51"/><path d="M1046,181L926,82L924,200Z" fill="rgb(137,140,207)" stroke="rgb(137,140,207)" stroke-width="1.51"/><path d="M1037,71L926,82L1046,181Z" fill="rgb(135,137,206)" stroke="rgb(135,137,206)" stroke-width="1.51"/><path d="M1008,1012L1039,941L902,944Z" fill="rgb(223,222,242)" stroke="rgb(223,222,242)" stroke-width="1.51"/><path d="M902,944L1039,941L1004,784Z" fill="rgb(222,221,242)" stroke="rgb(222,221,242)" stroke-width="1.51"/><path d="M1200,682L1255,617L1130,635Z" fill="rgb(210,208,237)" stroke="rgb(210,208,237)" stroke-width="1.51"/><path d="M1211,521L1257,418L1131,481Z" fill="rgb(190,189,229)" stroke="rgb(190,189,229)" stroke-width="1.51"/><path d="M1314,631L1255,617L1200,682Z" fill="rgb(214,212,238)" stroke="rgb(214,212,238)" stroke-width="1.51"/><path d="M417,261L310,329L443,404Z" fill="rgb(114,121,198)" stroke="rgb(114,121,198)" stroke-width="1.51"/><path d="M335,419L210,511L324,527Z" fill="rgb(126,130,203)" stroke="rgb(126,130,203)" stroke-width="1.51"/><path d="M229,269L310,329L282,177Z" fill="rgb(95,106,191)" stroke="rgb(95,106,191)" stroke-width="1.51"/><path d="M623,1033L687,915L607,896Z" fill="rgb(199,198,232)" stroke="rgb(199,198,232)" stroke-width="1.51"/><path d="M821,947L853,1040L902,944Z" fill="rgb(214,213,239)" stroke="rgb(214,213,239)" stroke-width="1.51"/><path d="M623,1033L607,896L506,997Z" fill="rgb(195,194,230)" stroke="rgb(195,194,230)" stroke-width="1.51"/><path d="M401,105L415,174L509,161Z" fill="rgb(95,105,191)" stroke="rgb(95,105,191)" stroke-width="1.51"/><path d="M509,161L415,174L417,261Z" fill="rgb(102,111,193)" stroke="rgb(102,111,193)" stroke-width="1.51"/><path d="M293,637L284,703L385,716Z" fill="rgb(152,153,213)" stroke="rgb(152,153,213)" stroke-width="1.51"/><path d="M506,997L607,896L543,885Z" fill="rgb(193,192,229)" stroke="rgb(193,192,229)" stroke-width="1.51"/><path d="M206,718L284,703L293,637Z" fill="rgb(148,149,211)" stroke="rgb(148,149,211)" stroke-width="1.51"/><path d="M705,1040L853,1040L821,947Z" fill="rgb(210,209,237)" stroke="rgb(210,209,237)" stroke-width="1.51"/><path d="M1371,531L1257,418L1211,521Z" fill="rgb(198,197,232)" stroke="rgb(198,197,232)" stroke-width="1.51"/><path d="M543,885L514,828L426,942Z" fill="rgb(187,186,227)" stroke="rgb(187,186,227)" stroke-width="1.51"/><path d="M853,1040L926,1036L902,944Z" fill="rgb(217,216,240)" stroke="rgb(217,216,240)" stroke-width="1.51"/><path d="M426,942L514,828L393,788Z" fill="rgb(180,179,224)" stroke="rgb(180,179,224)" stroke-width="1.51"/><path d="M341,926L426,942L393,788Z" fill="rgb(180,179,224)" stroke="rgb(180,179,224)" stroke-width="1.51"/><path d="M1257,418L1211,265L1137,322Z" fill="rgb(175,174,222)" stroke="rgb(175,174,222)" stroke-width="1.51"/><path d="M1138,83L1037,71L1046,181Z" fill="rgb(140,142,208)" stroke="rgb(140,142,208)" stroke-width="1.51"/><path d="M621,119L500,78L509,161Z" fill="rgb(99,109,193)" stroke="rgb(99,109,193)" stroke-width="1.51"/><path d="M699,-18L621,119L740,112Z" fill="rgb(105,113,194)" stroke="rgb(105,113,194)" stroke-width="1.51"/><path d="M926,1036L1008,1012L902,944Z" fill="rgb(221,219,241)" stroke="rgb(221,219,241)" stroke-width="1.51"/><path d="M1039,941L1128,1004L1100,889Z" fill="rgb(231,230,245)" stroke="rgb(231,230,245)" stroke-width="1.51"/><path d="M1243,918L1245,804L1141,835Z" fill="rgb(234,233,247)" stroke="rgb(234,233,247)" stroke-width="1.51"/><path d="M926,82L799,4L819,114Z" fill="rgb(117,123,199)" stroke="rgb(117,123,199)" stroke-width="1.51"/><path d="M1138,83L1046,181L1103,209Z" fill="rgb(147,148,210)" stroke="rgb(147,148,210)" stroke-width="1.51"/><path d="M926,82L927,-45L799,4Z" fill="rgb(113,119,197)" stroke="rgb(113,119,197)" stroke-width="1.51"/><path d="M284,703L309,843L393,788Z" fill="rgb(163,163,217)" stroke="rgb(163,163,217)" stroke-width="1.51"/><path d="M1243,918L1141,835L1100,889Z" fill="rgb(234,232,246)" stroke="rgb(234,232,246)" stroke-width="1.51"/><path d="M1141,835L1245,804L1200,682Z" fill="rgb(224,223,242)" stroke="rgb(224,223,242)" stroke-width="1.51"/><path d="M1346,192L1212,221L1211,265Z" fill="rgb(166,166,219)" stroke="rgb(166,166,219)" stroke-width="1.51"/><path d="M1211,265L1212,221L1103,209Z" fill="rgb(161,162,217)" stroke="rgb(161,162,217)" stroke-width="1.51"/><path d="M192,425L210,511L335,419Z" fill="rgb(118,124,200)" stroke="rgb(118,124,200)" stroke-width="1.51"/><path d="M284,703L232,792L309,843Z" fill="rgb(160,160,216)" stroke="rgb(160,160,216)" stroke-width="1.51"/><path d="M1336,718L1314,631L1200,682Z" fill="rgb(219,218,241)" stroke="rgb(219,218,241)" stroke-width="1.51"/><path d="M1255,617L1371,531L1211,521Z" fill="rgb(206,204,235)" stroke="rgb(206,204,235)" stroke-width="1.51"/><path d="M1257,418L1329,376L1211,265Z" fill="rgb(182,181,225)" stroke="rgb(182,181,225)" stroke-width="1.51"/><path d="M799,4L699,-18L740,112Z" fill="rgb(105,113,194)" stroke="rgb(105,113,194)" stroke-width="1.51"/><path d="M500,78L401,105L509,161Z" fill="rgb(93,104,190)" stroke="rgb(93,104,190)" stroke-width="1.51"/><path d="M282,177L310,329L417,261Z" fill="rgb(100,109,193)" stroke="rgb(100,109,193)" stroke-width="1.51"/><path d="M310,329L192,425L335,419Z" fill="rgb(113,120,198)" stroke="rgb(113,120,198)" stroke-width="1.51"/><path d="M412,-40L401,105L500,78Z" fill="rgb(80,96,186)" stroke="rgb(80,96,186)" stroke-width="1.51"/><path d="M309,843L341,926L393,788Z" fill="rgb(173,173,221)" stroke="rgb(173,173,221)" stroke-width="1.51"/><path d="M426,942L427,1017L506,997Z" fill="rgb(186,185,226)" stroke="rgb(186,185,226)" stroke-width="1.51"/><path d="M229,269L192,425L310,329Z" fill="rgb(104,113,194)" stroke="rgb(104,113,194)" stroke-width="1.51"/><path d="M341,926L427,1017L426,942Z" fill="rgb(182,181,225)" stroke="rgb(182,181,225)" stroke-width="1.51"/><path d="M506,997L427,1017L623,1033Z" fill="rgb(191,189,228)" stroke="rgb(191,189,228)" stroke-width="1.51"/><path d="M623,1033L227,1014L705,1040Z" fill="rgb(191,189,228)" stroke="rgb(191,189,228)" stroke-width="1.51"/><path d="M173,579L293,637L210,511Z" fill="rgb(132,135,205)" stroke="rgb(132,135,205)" stroke-width="1.51"/><path d="M173,579L206,718L293,637Z" fill="rgb(140,143,208)" stroke="rgb(140,143,208)" stroke-width="1.51"/><path d="M222,945L279,995L341,926Z" fill="rgb(174,173,222)" stroke="rgb(174,173,222)" stroke-width="1.51"/><path d="M206,718L232,792L284,703Z" fill="rgb(152,153,213)" stroke="rgb(152,153,213)" stroke-width="1.51"/><path d="M1371,531L1329,376L1257,418Z" fill="rgb(195,194,231)" stroke="rgb(195,194,231)" stroke-width="1.51"/><path d="M1008,1012L1128,1004L1039,941Z" fill="rgb(229,227,244)" stroke="rgb(229,227,244)" stroke-width="1.51"/><path d="M1225,1032L1128,1004L1008,1012Z" fill="rgb(233,232,246)" stroke="rgb(233,232,246)" stroke-width="1.51"/><path d="M135,519L173,579L210,511Z" fill="rgb(123,128,201)" stroke="rgb(123,128,201)" stroke-width="1.51"/><path d="M1212,221L1138,83L1103,209Z" fill="rgb(153,153,213)" stroke="rgb(153,153,213)" stroke-width="1.51"/><path d="M1037,71L1056,20L926,82Z" fill="rgb(128,132,203)" stroke="rgb(128,132,203)" stroke-width="1.51"/><path d="M1135,1L1138,83L1228,60Z" fill="rgb(139,142,208)" stroke="rgb(139,142,208)" stroke-width="1.51"/><path d="M699,-18L605,-33L621,119Z" fill="rgb(95,106,191)" stroke="rgb(95,106,191)" stroke-width="1.51"/><path d="M1138,83L1056,20L1037,71Z" fill="rgb(134,136,205)" stroke="rgb(134,136,205)" stroke-width="1.51"/><path d="M799,4L711,-88L699,-18Z" fill="rgb(100,109,192)" stroke="rgb(100,109,192)" stroke-width="1.51"/><path d="M699,-18L711,-88L605,-33Z" fill="rgb(94,105,190)" stroke="rgb(94,105,190)" stroke-width="1.51"/><path d="M282,177L417,261L415,174Z" fill="rgb(97,107,192)" stroke="rgb(97,107,192)" stroke-width="1.51"/><path d="M605,-33L546,-19L621,119Z" fill="rgb(90,102,189)" stroke="rgb(90,102,189)" stroke-width="1.51"/><path d="M1314,631L1371,531L1255,617Z" fill="rgb(212,211,238)" stroke="rgb(212,211,238)" stroke-width="1.51"/><path d="M1245,804L1336,718L1200,682Z" fill="rgb(224,223,243)" stroke="rgb(224,223,243)" stroke-width="1.51"/><path d="M1348,815L1336,718L1245,804Z" fill="rgb(232,231,246)" stroke="rgb(232,231,246)" stroke-width="1.51"/><path d="M283,91L282,177L401,105Z" fill="rgb(81,96,186)" stroke="rgb(81,96,186)" stroke-width="1.51"/><path d="M401,105L282,177L415,174Z" fill="rgb(89,101,189)" stroke="rgb(89,101,189)" stroke-width="1.51"/><path d="M1056,20L927,-45L926,82Z" fill="rgb(121,126,200)" stroke="rgb(121,126,200)" stroke-width="1.51"/><path d="M1446,600L1371,531L1314,631Z" fill="rgb(216,215,239)" stroke="rgb(216,215,239)" stroke-width="1.51"/><path d="M1128,1004L1243,918L1100,889Z" fill="rgb(235,234,247)" stroke="rgb(235,234,247)" stroke-width="1.51"/><path d="M192,425L135,519L210,511Z" fill="rgb(117,123,199)" stroke="rgb(117,123,199)" stroke-width="1.51"/><path d="M173,579L135,602L206,718Z" fill="rgb(134,138,206)" stroke="rgb(134,138,206)" stroke-width="1.51"/><path d="M206,718L128,713L232,792Z" fill="rgb(149,150,211)" stroke="rgb(149,150,211)" stroke-width="1.51"/><path d="M74,402L135,519L192,425Z" fill="rgb(109,116,196)" stroke="rgb(109,116,196)" stroke-width="1.51"/><path d="M828,-129L711,-88L799,4Z" fill="rgb(103,112,194)" stroke="rgb(103,112,194)" stroke-width="1.51"/><path d="M525,-131L412,-40L546,-19Z" fill="rgb(79,94,185)" stroke="rgb(79,94,185)" stroke-width="1.51"/><path d="M135,519L135,602L173,579Z" fill="rgb(125,130,202)" stroke="rgb(125,130,202)" stroke-width="1.51"/><path d="M1446,600L1429,475L1371,531Z" fill="rgb(213,211,238)" stroke="rgb(213,211,238)" stroke-width="1.51"/><path d="M1243,918L1348,815L1245,804Z" fill="rgb(238,237,248)" stroke="rgb(238,237,248)" stroke-width="1.51"/><path d="M1329,376L1364,297L1211,265Z" fill="rgb(180,179,224)" stroke="rgb(180,179,224)" stroke-width="1.51"/><path d="M1439,294L1364,297L1466,367Z" fill="rgb(189,188,228)" stroke="rgb(189,188,228)" stroke-width="1.51"/><path d="M1032,-140L909,-122L927,-45Z" fill="rgb(117,123,199)" stroke="rgb(117,123,199)" stroke-width="1.51"/><path d="M1138,83L1135,1L1056,20Z" fill="rgb(133,136,205)" stroke="rgb(133,136,205)" stroke-width="1.51"/><path d="M1228,60L1138,83L1212,221Z" fill="rgb(149,151,212)" stroke="rgb(149,151,212)" stroke-width="1.51"/><path d="M229,269L128,304L192,425Z" fill="rgb(98,108,192)" stroke="rgb(98,108,192)" stroke-width="1.51"/><path d="M170,195L128,304L229,269Z" fill="rgb(86,100,188)" stroke="rgb(86,100,188)" stroke-width="1.51"/><path d="M314,-27L283,91L401,105Z" fill="rgb(72,90,183)" stroke="rgb(72,90,183)" stroke-width="1.51"/><path d="M135,602L128,713L206,718Z" fill="rgb(139,141,208)" stroke="rgb(139,141,208)" stroke-width="1.51"/><path d="M222,945L341,926L309,843Z" fill="rgb(174,174,222)" stroke="rgb(174,174,222)" stroke-width="1.51"/><path d="M341,926L279,995L427,1017Z" fill="rgb(178,178,223)" stroke="rgb(178,178,223)" stroke-width="1.51"/><path d="M70,798L128,713L31,783Z" fill="rgb(143,146,210)" stroke="rgb(143,146,210)" stroke-width="1.51"/><path d="M222,945L309,843L232,792Z" fill="rgb(167,167,219)" stroke="rgb(167,167,219)" stroke-width="1.51"/><path d="M1346,192L1228,60L1212,221Z" fill="rgb(159,159,215)" stroke="rgb(159,159,215)" stroke-width="1.51"/><path d="M1371,531L1429,475L1329,376Z" fill="rgb(201,201,233)" stroke="rgb(201,201,233)" stroke-width="1.51"/><path d="M1446,600L1314,631L1336,718Z" fill="rgb(222,221,242)" stroke="rgb(222,221,242)" stroke-width="1.51"/><path d="M927,-45L828,-129L799,4Z" fill="rgb(109,116,196)" stroke="rgb(109,116,196)" stroke-width="1.51"/><path d="M909,-122L828,-129L927,-45Z" fill="rgb(112,119,197)" stroke="rgb(112,119,197)" stroke-width="1.51"/><path d="M1243,918L1310,946L1348,815Z" fill="rgb(244,244,251)" stroke="rgb(244,244,251)" stroke-width="1.51"/><path d="M1128,1004L1225,1032L1243,918Z" fill="rgb(238,237,248)" stroke="rgb(238,237,248)" stroke-width="1.51"/><path d="M926,1036L1225,1032L1008,1012Z" fill="rgb(228,227,244)" stroke="rgb(228,227,244)" stroke-width="1.51"/><path d="M853,1040L1225,1032L926,1036Z" fill="rgb(225,224,243)" stroke="rgb(225,224,243)" stroke-width="1.51"/><path d="M120,891L222,945L232,792Z" fill="rgb(165,165,218)" stroke="rgb(165,165,218)" stroke-width="1.51"/><path d="M170,195L229,269L282,177Z" fill="rgb(85,99,188)" stroke="rgb(85,99,188)" stroke-width="1.51"/><path d="M135,519L26,626L135,602Z" fill="rgb(123,128,201)" stroke="rgb(123,128,201)" stroke-width="1.51"/><path d="M546,-19L412,-40L500,78Z" fill="rgb(79,95,185)" stroke="rgb(79,95,185)" stroke-width="1.51"/><path d="M584,-118L546,-19L605,-33Z" fill="rgb(86,100,188)" stroke="rgb(86,100,188)" stroke-width="1.51"/><path d="M584,-118L605,-33L711,-88Z" fill="rgb(91,103,189)" stroke="rgb(91,103,189)" stroke-width="1.51"/><path d="M1032,-140L927,-45L1056,20Z" fill="rgb(121,126,200)" stroke="rgb(121,126,200)" stroke-width="1.51"/><path d="M1364,297L1346,192L1211,265Z" fill="rgb(172,173,221)" stroke="rgb(172,173,221)" stroke-width="1.51"/><path d="M1432,188L1346,192L1364,297Z" fill="rgb(175,174,222)" stroke="rgb(175,174,222)" stroke-width="1.51"/><path d="M1225,1032L1310,946L1243,918Z" fill="rgb(243,242,250)" stroke="rgb(243,242,250)" stroke-width="1.51"/><path d="M828,-129L584,-118L711,-88Z" fill="rgb(97,108,192)" stroke="rgb(97,108,192)" stroke-width="1.51"/><path d="M283,91L170,195L282,177Z" fill="rgb(78,95,185)" stroke="rgb(78,95,185)" stroke-width="1.51"/><path d="M125,185L170,195L170,56Z" fill="rgb(68,88,182)" stroke="rgb(68,88,182)" stroke-width="1.51"/><path d="M1448,720L1336,718L1348,815Z" fill="rgb(234,233,246)" stroke="rgb(234,233,246)" stroke-width="1.51"/><path d="M1448,720L1446,600L1336,718Z" fill="rgb(229,227,244)" stroke="rgb(229,227,244)" stroke-width="1.51"/><path d="M-30,370L74,402L-32,318Z" fill="rgb(87,100,188)" stroke="rgb(87,100,188)" stroke-width="1.51"/><path d="M128,304L74,402L192,425Z" fill="rgb(99,109,192)" stroke="rgb(99,109,192)" stroke-width="1.51"/><path d="M1464,783L1448,720L1348,815Z" fill="rgb(239,239,249)" stroke="rgb(239,239,249)" stroke-width="1.51"/><path d="M828,-129L525,-131L584,-118Z" fill="rgb(92,104,190)" stroke="rgb(92,104,190)" stroke-width="1.51"/><path d="M584,-118L525,-131L546,-19Z" fill="rgb(84,98,187)" stroke="rgb(84,98,187)" stroke-width="1.51"/><path d="M222,945L227,1014L279,995Z" fill="rgb(171,171,221)" stroke="rgb(171,171,221)" stroke-width="1.51"/><path d="M279,995L227,1014L427,1017Z" fill="rgb(176,175,223)" stroke="rgb(176,175,223)" stroke-width="1.51"/><path d="M427,1017L227,1014L623,1033Z" fill="rgb(184,183,226)" stroke="rgb(184,183,226)" stroke-width="1.51"/><path d="M112,987L227,1014L222,945Z" fill="rgb(167,167,219)" stroke="rgb(167,167,219)" stroke-width="1.51"/><path d="M1141,-120L1032,-140L1056,20Z" fill="rgb(126,131,202)" stroke="rgb(126,131,202)" stroke-width="1.51"/><path d="M1228,60L1226,-9L1135,1Z" fill="rgb(138,140,207)" stroke="rgb(138,140,207)" stroke-width="1.51"/><path d="M1313,8L1226,-9L1228,60Z" fill="rgb(142,144,209)" stroke="rgb(142,144,209)" stroke-width="1.51"/><path d="M1346,192L1352,80L1228,60Z" fill="rgb(157,157,215)" stroke="rgb(157,157,215)" stroke-width="1.51"/><path d="M1466,367L1364,297L1329,376Z" fill="rgb(190,188,228)" stroke="rgb(190,188,228)" stroke-width="1.51"/><path d="M1466,367L1329,376L1429,475Z" fill="rgb(198,196,231)" stroke="rgb(198,196,231)" stroke-width="1.51"/><path d="M334,-94L314,-27L412,-40Z" fill="rgb(64,86,181)" stroke="rgb(64,86,181)" stroke-width="1.51"/><path d="M412,-40L314,-27L401,105Z" fill="rgb(69,88,182)" stroke="rgb(69,88,182)" stroke-width="1.51"/><path d="M1533,500L1429,475L1446,600Z" fill="rgb(213,212,238)" stroke="rgb(213,212,238)" stroke-width="1.51"/><path d="M1550,401L1466,367L1429,475Z" fill="rgb(201,200,233)" stroke="rgb(201,200,233)" stroke-width="1.51"/><path d="M170,195L125,185L128,304Z" fill="rgb(79,95,186)" stroke="rgb(79,95,186)" stroke-width="1.51"/><path d="M170,56L170,195L283,91Z" fill="rgb(69,88,182)" stroke="rgb(69,88,182)" stroke-width="1.51"/><path d="M828,-129L1032,-140L525,-131Z" fill="rgb(104,113,194)" stroke="rgb(104,113,194)" stroke-width="1.51"/><path d="M909,-122L1032,-140L828,-129Z" fill="rgb(115,121,198)" stroke="rgb(115,121,198)" stroke-width="1.51"/><path d="M1141,-120L1056,20L1135,1Z" fill="rgb(129,133,204)" stroke="rgb(129,133,204)" stroke-width="1.51"/><path d="M70,798L232,792L128,713Z" fill="rgb(148,150,211)" stroke="rgb(148,150,211)" stroke-width="1.51"/><path d="M70,798L120,891L232,792Z" fill="rgb(155,156,214)" stroke="rgb(155,156,214)" stroke-width="1.51"/><path d="M1464,988L1408,892L1310,946Z" fill="rgb(252,251,254)" stroke="rgb(252,251,254)" stroke-width="1.51"/><path d="M1310,946L1408,892L1348,815Z" fill="rgb(247,247,252)" stroke="rgb(247,247,252)" stroke-width="1.51"/><path d="M26,626L128,713L135,602Z" fill="rgb(130,134,204)" stroke="rgb(130,134,204)" stroke-width="1.51"/><path d="M-17,477L26,626L135,519Z" fill="rgb(114,120,198)" stroke="rgb(114,120,198)" stroke-width="1.51"/><path d="M1408,892L1464,783L1348,815Z" fill="rgb(245,244,251)" stroke="rgb(245,244,251)" stroke-width="1.51"/><path d="M1570,632L1533,500L1446,600Z" fill="rgb(219,218,240)" stroke="rgb(219,218,240)" stroke-width="1.51"/><path d="M525,-131L407,-114L412,-40Z" fill="rgb(74,92,184)" stroke="rgb(74,92,184)" stroke-width="1.51"/><path d="M1225,1032L1323,1032L1310,946Z" fill="rgb(244,244,251)" stroke="rgb(244,244,251)" stroke-width="1.51"/><path d="M853,1040L1323,1032L1225,1032Z" fill="rgb(234,233,246)" stroke="rgb(234,233,246)" stroke-width="1.51"/><path d="M1420,87L1352,80L1346,192Z" fill="rgb(163,163,217)" stroke="rgb(163,163,217)" stroke-width="1.51"/><path d="M1439,294L1432,188L1364,297Z" fill="rgb(181,180,224)" stroke="rgb(181,180,224)" stroke-width="1.51"/><path d="M1567,180L1432,188L1439,294Z" fill="rgb(179,178,223)" stroke="rgb(179,178,223)" stroke-width="1.51"/><path d="M1227,-111L1141,-120L1226,-9Z" fill="rgb(136,139,206)" stroke="rgb(136,139,206)" stroke-width="1.51"/><path d="M1226,-9L1141,-120L1135,1Z" fill="rgb(133,137,205)" stroke="rgb(133,137,205)" stroke-width="1.51"/><path d="M173,-44L170,56L314,-27Z" fill="rgb(49,78,177)" stroke="rgb(49,78,177)" stroke-width="1.51"/><path d="M314,-27L170,56L283,91Z" fill="rgb(61,84,180)" stroke="rgb(61,84,180)" stroke-width="1.51"/><path d="M407,-114L334,-94L412,-40Z" fill="rgb(67,88,182)" stroke="rgb(67,88,182)" stroke-width="1.51"/><path d="M1352,80L1313,8L1228,60Z" fill="rgb(149,150,212)" stroke="rgb(149,150,212)" stroke-width="1.51"/><path d="M1436,7L1313,8L1352,80Z" fill="rgb(152,153,213)" stroke="rgb(152,153,213)" stroke-width="1.51"/><path d="M0,681L31,783L128,713Z" fill="rgb(137,140,207)" stroke="rgb(137,140,207)" stroke-width="1.51"/><path d="M70,798L-5,924L120,891Z" fill="rgb(155,155,214)" stroke="rgb(155,155,214)" stroke-width="1.51"/><path d="M1570,632L1446,600L1448,720Z" fill="rgb(227,226,244)" stroke="rgb(227,226,244)" stroke-width="1.51"/><path d="M1466,367L1565,325L1439,294Z" fill="rgb(191,190,229)" stroke="rgb(191,190,229)" stroke-width="1.51"/><path d="M26,626L0,681L128,713Z" fill="rgb(130,134,204)" stroke="rgb(130,134,204)" stroke-width="1.51"/><path d="M-71,588L0,681L26,626Z" fill="rgb(122,127,200)" stroke="rgb(122,127,200)" stroke-width="1.51"/><path d="M-17,477L135,519L74,402Z" fill="rgb(105,114,195)" stroke="rgb(105,114,195)" stroke-width="1.51"/><path d="M-30,370L-17,477L74,402Z" fill="rgb(95,105,191)" stroke="rgb(95,105,191)" stroke-width="1.51"/><path d="M74,402L128,304L-32,318Z" fill="rgb(88,101,188)" stroke="rgb(88,101,188)" stroke-width="1.51"/><path d="M-5,924L112,987L120,891Z" fill="rgb(159,159,216)" stroke="rgb(159,159,216)" stroke-width="1.51"/><path d="M120,891L112,987L222,945Z" fill="rgb(164,164,218)" stroke="rgb(164,164,218)" stroke-width="1.51"/><path d="M1313,8L1227,-111L1226,-9Z" fill="rgb(140,142,208)" stroke="rgb(140,142,208)" stroke-width="1.51"/><path d="M1432,188L1420,87L1346,192Z" fill="rgb(168,168,220)" stroke="rgb(168,168,220)" stroke-width="1.51"/><path d="M1510,101L1420,87L1432,188Z" fill="rgb(168,168,219)" stroke="rgb(168,168,219)" stroke-width="1.51"/><path d="M1533,500L1550,401L1429,475Z" fill="rgb(206,204,235)" stroke="rgb(206,204,235)" stroke-width="1.51"/><path d="M1372,-121L1227,-111L1313,8Z" fill="rgb(144,145,209)" stroke="rgb(144,145,209)" stroke-width="1.51"/><path d="M1141,-120L1372,-121L1032,-140Z" fill="rgb(135,138,206)" stroke="rgb(135,138,206)" stroke-width="1.51"/><path d="M-17,477L-71,588L26,626Z" fill="rgb(113,120,197)" stroke="rgb(113,120,197)" stroke-width="1.51"/><path d="M-32,318L128,304L125,185Z" fill="rgb(79,95,186)" stroke="rgb(79,95,186)" stroke-width="1.51"/><path d="M1533,500L1570,632L1550,401Z" fill="rgb(212,210,237)" stroke="rgb(212,210,237)" stroke-width="1.51"/><path d="M1562,724L1570,632L1448,720Z" fill="rgb(232,231,246)" stroke="rgb(232,231,246)" stroke-width="1.51"/><path d="M1562,724L1448,720L1464,783Z" fill="rgb(238,237,248)" stroke="rgb(238,237,248)" stroke-width="1.51"/><path d="M1562,724L1464,783L1555,803Z" fill="rgb(240,240,249)" stroke="rgb(240,240,249)" stroke-width="1.51"/><path d="M1555,803L1464,783L1552,894Z" fill="rgb(247,246,252)" stroke="rgb(247,246,252)" stroke-width="1.51"/><path d="M170,56L84,77L125,185Z" fill="rgb(58,82,179)" stroke="rgb(58,82,179)" stroke-width="1.51"/><path d="M69,-13L84,77L170,56Z" fill="rgb(42,75,176)" stroke="rgb(42,75,176)" stroke-width="1.51"/><path d="M-21,160L-32,318L125,185Z" fill="rgb(67,88,181)" stroke="rgb(67,88,181)" stroke-width="1.51"/><path d="M228,-119L173,-44L314,-27Z" fill="rgb(51,79,178)" stroke="rgb(51,79,178)" stroke-width="1.51"/><path d="M1550,401L1565,325L1466,367Z" fill="rgb(195,194,230)" stroke="rgb(195,194,230)" stroke-width="1.51"/><path d="M1570,632L1565,325L1550,401Z" fill="rgb(205,204,235)" stroke="rgb(205,204,235)" stroke-width="1.51"/><path d="M1323,1032L1464,988L1310,946Z" fill="rgb(250,249,253)" stroke="rgb(250,249,253)" stroke-width="1.51"/><path d="M31,783L-5,924L70,798Z" fill="rgb(148,150,211)" stroke="rgb(148,150,211)" stroke-width="1.51"/><path d="M0,681L-74,686L31,783Z" fill="rgb(132,135,205)" stroke="rgb(132,135,205)" stroke-width="1.51"/><path d="M-93,529L-71,588L-17,477Z" fill="rgb(109,116,196)" stroke="rgb(109,116,196)" stroke-width="1.51"/><path d="M-77,375L-17,477L-30,370Z" fill="rgb(93,104,190)" stroke="rgb(93,104,190)" stroke-width="1.51"/><path d="M1552,894L1464,783L1408,892Z" fill="rgb(250,250,253)" stroke="rgb(250,250,253)" stroke-width="1.51"/><path d="M334,-94L228,-119L314,-27Z" fill="rgb(58,83,179)" stroke="rgb(58,83,179)" stroke-width="1.51"/><path d="M10,65L-21,160L84,77Z" fill="rgb(44,76,176)" stroke="rgb(44,76,176)" stroke-width="1.51"/><path d="M407,-114L228,-119L334,-94Z" fill="rgb(61,85,180)" stroke="rgb(61,85,180)" stroke-width="1.51"/><path d="M525,-131L228,-119L407,-114Z" fill="rgb(68,88,182)" stroke="rgb(68,88,182)" stroke-width="1.51"/><path d="M-71,588L-74,686L0,681Z" fill="rgb(124,128,201)" stroke="rgb(124,128,201)" stroke-width="1.51"/><path d="M-32,318L-77,375L-30,370Z" fill="rgb(85,99,187)" stroke="rgb(85,99,187)" stroke-width="1.51"/><path d="M-71,588L-93,529L-74,686Z" fill="rgb(118,123,199)" stroke="rgb(118,123,199)" stroke-width="1.51"/><path d="M-82,301L-77,375L-32,318Z" fill="rgb(82,97,186)" stroke="rgb(82,97,186)" stroke-width="1.51"/><path d="M-77,375L-93,529L-17,477Z" fill="rgb(100,109,192)" stroke="rgb(100,109,192)" stroke-width="1.51"/><path d="M-74,823L-5,924L31,783Z" fill="rgb(147,149,211)" stroke="rgb(147,149,211)" stroke-width="1.51"/><path d="M1420,87L1436,7L1352,80Z" fill="rgb(158,158,215)" stroke="rgb(158,158,215)" stroke-width="1.51"/><path d="M1510,101L1436,7L1420,87Z" fill="rgb(161,162,216)" stroke="rgb(161,162,216)" stroke-width="1.51"/><path d="M1464,988L1552,894L1408,892Z" fill="rgb(255,255,255)" stroke="rgb(255,255,255)" stroke-width="1.51"/><path d="M1555,803L1552,894L1562,724Z" fill="rgb(245,244,251)" stroke="rgb(245,244,251)" stroke-width="1.51"/><path d="M1562,724L1553,1034L1570,632Z" fill="rgb(244,243,251)" stroke="rgb(244,243,251)" stroke-width="1.51"/><path d="M1567,180L1510,101L1432,188Z" fill="rgb(171,171,221)" stroke="rgb(171,171,221)" stroke-width="1.51"/><path d="M84,77L-21,160L125,185Z" fill="rgb(57,82,179)" stroke="rgb(57,82,179)" stroke-width="1.51"/><path d="M69,-13L170,56L173,-44Z" fill="rgb(37,74,174)" stroke="rgb(37,74,174)" stroke-width="1.51"/><path d="M-77,375L-82,301L-93,529Z" fill="rgb(92,103,190)" stroke="rgb(92,103,190)" stroke-width="1.51"/><path d="M-21,160L-82,301L-32,318Z" fill="rgb(71,90,183)" stroke="rgb(71,90,183)" stroke-width="1.51"/><path d="M1565,325L1567,180L1439,294Z" fill="rgb(184,183,226)" stroke="rgb(184,183,226)" stroke-width="1.51"/><path d="M1570,632L1567,180L1565,325Z" fill="rgb(197,196,231)" stroke="rgb(197,196,231)" stroke-width="1.51"/><path d="M-5,924L1,987L112,987Z" fill="rgb(156,157,214)" stroke="rgb(156,157,214)" stroke-width="1.51"/><path d="M112,987L1,987L227,1014Z" fill="rgb(162,162,217)" stroke="rgb(162,162,217)" stroke-width="1.51"/><path d="M-106,993L1,987L-5,924Z" fill="rgb(153,154,213)" stroke="rgb(153,154,213)" stroke-width="1.51"/><path d="M-74,686L-74,823L31,783Z" fill="rgb(138,140,207)" stroke="rgb(138,140,207)" stroke-width="1.51"/><path d="M-123,922L-74,823L-74,686Z" fill="rgb(143,145,209)" stroke="rgb(143,145,209)" stroke-width="1.51"/><path d="M72,-144L69,-13L173,-44Z" fill="rgb(31,72,173)" stroke="rgb(31,72,173)" stroke-width="1.51"/><path d="M69,-13L10,65L84,77Z" fill="rgb(35,73,174)" stroke="rgb(35,73,174)" stroke-width="1.51"/><path d="M-21,160L-100,195L-82,301Z" fill="rgb(64,86,181)" stroke="rgb(64,86,181)" stroke-width="1.51"/><path d="M1436,7L1372,-121L1313,8Z" fill="rgb(149,150,211)" stroke="rgb(149,150,211)" stroke-width="1.51"/><path d="M1227,-111L1372,-121L1141,-120Z" fill="rgb(139,142,208)" stroke="rgb(139,142,208)" stroke-width="1.51"/><path d="M1450,-112L1372,-121L1436,7Z" fill="rgb(152,153,213)" stroke="rgb(152,153,213)" stroke-width="1.51"/><path d="M1450,-112L1436,7L1530,-86Z" fill="rgb(153,154,213)" stroke="rgb(153,154,213)" stroke-width="1.51"/><path d="M-138,97L-21,160L10,65Z" fill="rgb(42,76,175)" stroke="rgb(42,76,175)" stroke-width="1.51"/><path d="M-138,97L-100,195L-21,160Z" fill="rgb(51,80,178)" stroke="rgb(51,80,178)" stroke-width="1.51"/><path d="M-82,301L-138,97L-93,529Z" fill="rgb(79,94,185)" stroke="rgb(79,94,185)" stroke-width="1.51"/><path d="M1464,988L1553,1034L1552,894Z" fill="rgb(255,255,255)" stroke="rgb(255,255,255)" stroke-width="1.51"/><path d="M1552,894L1553,1034L1562,724Z" fill="rgb(253,253,255)" stroke="rgb(253,253,255)" stroke-width="1.51"/><path d="M1323,1032L1553,1034L1464,988Z" fill="rgb(255,255,255)" stroke="rgb(255,255,255)" stroke-width="1.51"/><path d="M853,1040L1553,1034L1323,1032Z" fill="rgb(241,241,250)" stroke="rgb(241,241,250)" stroke-width="1.51"/><path d="M69,-13L-6,-8L10,65Z" fill="rgb(18,69,171)" stroke="rgb(18,69,171)" stroke-width="1.51"/><path d="M-25,-115L-6,-8L69,-13Z" fill="rgb(5,66,170)" stroke="rgb(5,66,170)" stroke-width="1.51"/><path d="M1563,-8L1436,7L1510,101Z" fill="rgb(157,158,215)" stroke="rgb(157,158,215)" stroke-width="1.51"/><path d="M-138,97L-123,922L-93,529Z" fill="rgb(107,115,195)" stroke="rgb(107,115,195)" stroke-width="1.51"/><path d="M-93,529L-123,922L-74,686Z" fill="rgb(131,135,205)" stroke="rgb(131,135,205)" stroke-width="1.51"/><path d="M-74,823L-123,922L-5,924Z" fill="rgb(152,154,213)" stroke="rgb(152,154,213)" stroke-width="1.51"/><path d="M1567,180L1563,-8L1510,101Z" fill="rgb(164,164,218)" stroke="rgb(164,164,218)" stroke-width="1.51"/><path d="M1032,-140L72,-144L525,-131Z" fill="rgb(83,97,187)" stroke="rgb(83,97,187)" stroke-width="1.51"/><path d="M525,-131L72,-144L228,-119Z" fill="rgb(56,82,179)" stroke="rgb(56,82,179)" stroke-width="1.51"/><path d="M228,-119L72,-144L173,-44Z" fill="rgb(40,75,175)" stroke="rgb(40,75,175)" stroke-width="1.51"/><path d="M-123,922L-106,993L-5,924Z" fill="rgb(153,154,213)" stroke="rgb(153,154,213)" stroke-width="1.51"/><path d="M1,987L-106,993L227,1014Z" fill="rgb(156,157,214)" stroke="rgb(156,157,214)" stroke-width="1.51"/><path d="M1563,-8L1530,-86L1436,7Z" fill="rgb(153,154,213)" stroke="rgb(153,154,213)" stroke-width="1.51"/><path d="M-109,-11L10,65L-6,-8Z" fill="rgb(11,67,171)" stroke="rgb(11,67,171)" stroke-width="1.51"/><path d="M-109,-11L-138,97L10,65Z" fill="rgb(27,70,173)" stroke="rgb(27,70,173)" stroke-width="1.51"/><path d="M-100,195L-138,97L-82,301Z" fill="rgb(60,84,180)" stroke="rgb(60,84,180)" stroke-width="1.51"/><path d="M72,-144L-25,-115L69,-13Z" fill="rgb(16,68,171)" stroke="rgb(16,68,171)" stroke-width="1.51"/><path d="M-25,-115L-109,-11L-6,-8Z" fill="rgb(0,66,170)" stroke="rgb(0,66,170)" stroke-width="1.51"/><path d="M-25,-115L-114,-137L-109,-11Z" fill="rgb(0,66,170)" stroke="rgb(0,66,170)" stroke-width="1.51"/><path d="M-109,-11L-114,-137L-138,97Z" fill="rgb(0,66,170)" stroke="rgb(0,66,170)" stroke-width="1.51"/><path d="M72,-144L-114,-137L-25,-115Z" fill="rgb(0,66,170)" stroke="rgb(0,66,170)" stroke-width="1.51"/></svg>